<svg xmlns="http://www.w3.org/2000/svg" viewBox="0 0 120 120" width="120" height="120" role="img" aria-label="Нөхөр cat-eye mark">
  
  <rect x="6" y="14" width="108" height="100" rx="26" fill="#15151b"></rect>
  
  <path d="M30 22 L20 -2 L50 16 Z" fill="#15151b"></path>
  <path d="M90 22 L100 -2 L70 16 Z" fill="#15151b"></path>
  
  <path d="M33 18 L27 4 L44 15 Z" fill="#2536ce"></path>
  <path d="M87 18 L93 4 L76 15 Z" fill="#2536ce"></path>
  
  <path d="M24 64 C24 48 44 48 44 64 C44 80 24 80 24 64 Z" fill="#ffc833"></path>
  <path d="M76 64 C76 48 96 48 96 64 C96 80 76 80 76 64 Z" fill="#ffc833"></path>
  
  <path d="M34 52 C37 58 37 70 34 76 C31 70 31 58 34 52 Z" fill="#15151b"></path>
  <path d="M86 52 C89 58 89 70 86 76 C83 70 83 58 86 52 Z" fill="#15151b"></path>
  
  <circle cx="30" cy="58" r="2.4" fill="#fbf6ea"></circle>
  <circle cx="82" cy="58" r="2.4" fill="#fbf6ea"></circle>
  
  <path d="M55 86 L65 86 L60 93 Z" fill="#ef9f63"></path>
  <path d="M60 93 L60 100" stroke="#fbf6ea" stroke-width="3" stroke-linecap="round"></path>
</svg>